<?xml version="1.0" encoding="utf-8"?>
<!-- Generator: Adobe Illustrator 17.0.0, SVG Export Plug-In . SVG Version: 6.00 Build 0)  -->
<!DOCTYPE svg PUBLIC "-//W3C//DTD SVG 1.1//EN" "http://www.w3.org/Graphics/SVG/1.1/DTD/svg11.dtd">
<svg version="1.1" id="Layer_1" xmlns="http://www.w3.org/2000/svg" xmlns:xlink="http://www.w3.org/1999/xlink" x="0px" y="0px"
	 width="612px" height="792px" viewBox="0 0 612 792" enable-background="new 0 0 612 792" xml:space="preserve">
<path fill="#6F6F6F" d="M518.5,129.1c-80.75,0-141.1,85.85-113.05,147.05C520.2,276.15,473.45,169.9,518.5,129.1z"/>
<path fill="#6F6F6F" d="M544.85,359.45c0-27.2-130.05-40.8-202.3-45.05C271.15,311,6.8,360.3,38.25,426.6S148.75,563.45,238,563.45
	c45.9,0,99.45-32.3,102.85-92.65C394.4,452.95,544.85,452.1,544.85,359.45L544.85,359.45z"/>
<path fill="#7F7F7F" d="M478.55,378.15c8.5,8.5-17.85,31.45-41.65,20.4c10.2,23.8-35.7,43.35-57.8,26.35
	c2.55,18.7-43.35,29.75-57.8,8.5c3.4,10.2,6.8,17.85,10.2,23.8l0,0c7.65,10.2,17.85,17.85,62.9,17.85
	c68.85,0,180.2-52.7,180.2-90.95c0-31.45-11.9-34.85-32.3-32.3c-20.4,2.55-128.35,13.6-150.45,9.35
	C403.75,363.7,465.8,375.6,478.55,378.15L478.55,378.15z"/>
<path fill="#6F6F6F" d="M237.15,111.25C105.4,111.25-27.2,242.15,35.7,423.2c42.5,25.5,99.45,15.3,112.2,1.7
	c19.55,5.95,36.55,8.5,51.85,8.5c79.9,0,148.75-85,148.75-191.25C348.5,133.35,277.1,111.25,237.15,111.25L237.15,111.25z"/>
<path fill="#7F7F7F" d="M182.75,227.7c0,29.75,23.8,53.55,53.55,53.55s53.55-23.8,53.55-53.55s-23.8-53.55-53.55-53.55
	C206.55,175,182.75,198.8,182.75,227.7z"/>
<path fill="#7F7F7F" d="M204,227.7c0,17.85,14.45,32.3,32.3,32.3s32.3-14.45,32.3-32.3c0-17.85-14.45-32.3-32.3-32.3
	C218.45,196.25,204,210.7,204,227.7z"/>
<ellipse fill="#FFFFFF" cx="236.3" cy="214.1" rx="18.7" ry="11.9"/>
<path fill="#CECECE" d="M345.1,200.5c-23.8,14.45-23.8,59.5-12.75,81.6c21.25-7.65,50.15-22.95,54.4-25.5
	c4.25-2.55-2.55-12.75,15.3-12.75c24.65,0,45.9,7.65,52.7,10.2C450.5,245.55,401.2,200.5,345.1,200.5z"/>
<path fill="#7F7F7F" d="M600.1,390.05c-31.45-30.6-188.7-49.3-238-54.4c2.55-5.95,4.25-11.9,5.95-17.85
	c6.8-2.55,14.45-5.95,21.25-7.65c0.85,2.55,5.1,12.75,7.65,17.85c99.45,2.55,104.55-73.95,108.8-95.2S510,192,544,155.45
	C493,141,419.9,178.4,395.25,234.5c-9.35-3.4-18.7-5.95-27.2-7.65c-6.8-26.35-40.8-100.3-130.05-100.3
	c-57.8,0-116.45,23.8-160.65,65.45c-23.8,22.1-42.5,49.3-55.25,79.05C7.65,305.05,0,340.75,0,379c0,133.45,90.95,249.9,141.95,249.9
	c22.1,0,41.65-17,45.9-31.45c3.4,10.2,15.3,42.5,19.55,50.15c5.95,11.9,31.45,22.95,43.35,10.2c14.45,8.5,41.65,12.75,56.1-8.5
	c28.05,5.95,53.55-11.05,53.55-31.45c13.6-0.85,20.4-20.4,17.85-35.7c-2.55-11.05-26.35-52.7-35.7-66.3
	c18.7,15.3,65.45,19.55,70.55,0c29.75,22.95,76.5,11.05,79.9-7.65c36.55,9.35,77.35-11.05,70.55-36.55
	C623.9,467.4,616.25,405.35,600.1,390.05L600.1,390.05z M448.8,287.2c-15.3-5.95-34.85-10.2-48.45-10.2
	c-19.55,0-31.45,11.05-49.3,11.05c-3.4,0-12.75,0-20.4-2.55c5.1,5.1,11.05,7.65,22.1,7.65c6.8,0,20.4-3.4,31.45-6.8
	c0,2.55,0,4.25,0.85,6.8c-20.4,5.1-42.5,17.85-49.3,21.25c-14.45-30.6-1.7-60.35,9.35-73.95C396.1,241.3,436.05,276.15,448.8,287.2z
	 M470.05,284.65l-7.65-6.8c-7.65-7.65-16.15-13.6-24.65-19.55c12.75-24.65,28.05-51.85,48.45-68.85c-22.1,8.5-43.35,34.85-56.1,62.9
	c-6.8-4.25-12.75-7.65-19.55-11.05c17.85-38.25,59.5-69.7,104.55-72.25C484.5,197.1,495.55,252.35,470.05,284.65z M407.15,311
	c-3.4-7.65-6.8-19.55-5.95-26.35c5.95,0,16.15,1.7,18.7,2.55c-0.85,3.4-0.85,11.05-0.85,11.9c0.85-1.7,4.25-8.5,5.1-11.05
	c11.05,1.7,25.5,5.95,34,9.35C447.1,303.35,430.95,310.15,407.15,311z M339.15,225.15c-39.95,40.8-23.8,91.8-9.35,114.75
	c-20.4,34-61.2,57.8-107.95,68.85c52.7,0,84.15-13.6,102-27.2c11.9-8.5,17.85-17,21.25-21.25c78.2,5.1,202.3,30.6,215.05,38.25
	c5.1,3.4,10.2,10.2,10.2,17.85c-58.65-8.5-164.9-17-192.95-18.7c19.55,2.55,164.05,29.75,188.7,36.55
	c-7.65,12.75-24.65,21.25-51,15.3c14.45,19.55-13.6,42.5-51,29.75c8.5,18.7-25.5,35.7-63.75,16.15c0.85,18.7-47.6,21.25-67.15,0
	c0,2.55,2.55,7.65,3.4,9.35c-5.95,55.25-51,89.25-97.75,89.25C124.95,593.2,26.35,501.4,26.35,379c0-129.2,95.2-226.1,210.8-226.1
	C303.45,153.75,333.2,205.6,339.15,225.15L339.15,225.15z"/>
</svg>
