<?xml version="1.0" encoding="utf-8"?>
<!-- Generator: Adobe Illustrator 17.0.0, SVG Export Plug-In . SVG Version: 6.00 Build 0)  -->
<!DOCTYPE svg PUBLIC "-//W3C//DTD SVG 1.1//EN" "http://www.w3.org/Graphics/SVG/1.1/DTD/svg11.dtd">
<svg version="1.1" id="Layer_1" xmlns="http://www.w3.org/2000/svg" xmlns:xlink="http://www.w3.org/1999/xlink" x="0px" y="0px"
	 width="612px" height="792px" viewBox="0 0 612 792" enable-background="new 0 0 612 792" xml:space="preserve">
<g>
	<path id="Shape_1_" fill="#5D5D5D" d="M85,640.8L36.55,90H576.3L527,640.8L306,702L85,640.8z"/>
	<path id="Shape_2_" fill="#AAAAAA" d="M306,655.25l178.5-49.3l42.5-470.9H306V655.25z"/>
	<g id="Group" transform="translate(55.000000, 142.000000)">
		<path id="Shape_3_" fill="#FFFFFF" d="M251,192.8h89.25l5.95-68.85H251v-68l0,0h169.15l-1.7,17.85l-17,186.15H251V192.8L251,192.8
			z"/>
		<path id="Shape_4_" fill="#EBEBEB" d="M251.85,367.9L251.85,367.9l-75.65-20.4l-5.1-53.55h-35.7h-31.45l9.35,106.25L251,438.45
			l0,0C251.85,438.45,251.85,367.9,251.85,367.9z"/>
		<path id="Shape_5_" fill="#FFFFFF" d="M335.15,257.4l-8.5,90.95L251,368.75v70.55l138.55-38.25L390.4,390l11.9-131.75
			L335.15,257.4L335.15,257.4z"/>
		<path id="Shape_6_" fill="#EBEBEB" d="M251,55.95V97.6v25.5l0,0H87.8l0,0l-1.7-15.3l-3.4-34L81,55.1h170V55.95z"/>
		<path id="Shape_7_" fill="#EBEBEB" d="M251,192.8v41.65v25.5l0,0h-73.95l0,0l-0.85-15.3l-3.4-34l-1.7-17.85H251L251,192.8z"/>
	</g>
</g>
</svg>
