<?xml version="1.0" encoding="utf-8"?>
<!-- Generator: Adobe Illustrator 17.0.0, SVG Export Plug-In . SVG Version: 6.00 Build 0)  -->
<!DOCTYPE svg PUBLIC "-//W3C//DTD SVG 1.1//EN" "http://www.w3.org/Graphics/SVG/1.1/DTD/svg11.dtd">
<svg version="1.1" id="Layer_1" xmlns="http://www.w3.org/2000/svg" xmlns:xlink="http://www.w3.org/1999/xlink" x="0px" y="0px"
	 width="612px" height="792px" viewBox="0 0 612 792" enable-background="new 0 0 612 792" xml:space="preserve">
<path id="Shape" fill="#5D5D5D" d="M85,640.8L36.55,90H576.3L527,640.8L306,702L85,640.8z"/>
<path id="Shape_1_" fill="#AAAAAA" d="M306,655.25l178.5-49.3l42.5-470.9H306V655.25z"/>
<path id="Shape_2_" fill="#EBEBEB" d="M306,339.05h-89.25l-5.95-68.85H306v-67.15l0,0H136.85l1.7,17.85l17,186.15H306V339.05z"/>
<path id="Shape_3_" fill="#EBEBEB" d="M306,515L306,515l-75.65-20.4l-5.1-53.55H188.7h-31.45l9.35,106.25L306,585.55l0,0V515
	L306,515z"/>
<path id="Shape_8_" fill="#FFFFFF" d="M306,339.05v67.15h83.3l-7.65,87.55L306,515v70.55l138.55-38.25l0.85-11.05l16.15-177.65
	l1.7-17.85H445.4L306,339.05L306,339.05z"/>
<path id="Shape_9_" fill="#FFFFFF" d="M306,203.05v41.65v25.5l0,0h163.2l0,0l0.85-15.3l3.4-34l1.7-17.85H306L306,203.05z"/>
</svg>
