<?xml version="1.0" encoding="utf-8"?>
<!-- Generator: Adobe Illustrator 17.0.0, SVG Export Plug-In . SVG Version: 6.00 Build 0)  -->
<!DOCTYPE svg PUBLIC "-//W3C//DTD SVG 1.1//EN" "http://www.w3.org/Graphics/SVG/1.1/DTD/svg11.dtd">
<svg version="1.1" id="Layer_1" xmlns="http://www.w3.org/2000/svg" xmlns:xlink="http://www.w3.org/1999/xlink" x="0px" y="0px"
	 width="391px" height="202px" viewBox="0 0 391 202" enable-background="new 0 0 391 202" xml:space="preserve">
<g transform="translate(0.738281, 121.593)">
	<path fill="#AAAAAA" d="M0,62.235h12.842V11.524l19.881,44.208c2.346,5.351,5.557,7.244,11.854,7.244
		c6.298,0,9.385-1.893,11.731-7.244l19.88-44.208v50.711H89.03V11.607c0-4.939-1.977-7.327-6.051-8.561
		C73.225,0,66.68,2.634,63.716,9.22l-19.51,43.63L25.313,9.22C22.474,2.634,15.806,0,6.051,3.046C1.976,4.28,0,6.668,0,11.607
		V62.235z"/>
</g>
<g transform="translate(100.444, 142.416)">
	<path fill="#AAAAAA" d="M0.002,0.136H12.84v27.938c-0.12,1.518,0.487,5.08,7.522,5.191c3.589,0.056,27.7,0,27.925,0V0h12.868
		c0.059,0-0.013,45.364-0.012,45.557c0.071,11.188-13.882,13.618-20.313,13.806H0.281v-8.639c0.071,0,40.519,0.008,40.621-0.002
		c8.265-0.873,7.289-4.981,7.288-6.364V40.99H20.895C8.196,40.873,0.109,35.331,0.009,28.955C0,28.364,0.283,0.415,0.002,0.136z"/>
</g>
<g transform="translate(171.496, 124.557)">
	<path fill="#AAAAAA" d="M0,59.271h36.92c4.322,0,8.521-0.905,11.855-2.47c5.556-2.551,8.273-6.008,8.273-10.537V36.88
		c0-3.705-3.087-7.163-9.138-9.467c-3.211-1.236-7.162-1.894-10.99-1.894H21.361c-5.185,0-7.655-1.564-8.272-5.021
		c-0.124-0.412-0.124-0.742-0.124-1.153v-5.844c0-0.33,0-0.66,0.124-1.071c0.617-2.634,1.976-3.376,6.544-3.787
		c0.371,0,0.864-0.083,1.235-0.083h36.674V0H21.485c-5.186,0-7.903,0.329-10.372,1.069C3.457,3.457,0.123,7.244,0.123,13.83v7.491
		c0,5.763,6.545,10.702,17.534,11.854c1.236,0.082,2.47,0.164,3.704,0.164h13.336c0.495,0,0.989,0,1.359,0.083
		c4.075,0.33,5.803,1.07,7.039,2.552c0.74,0.74,0.987,1.482,0.987,2.305v7.491c0,0.906-0.617,2.059-1.851,3.046
		c-1.112,0.988-2.964,1.647-5.434,1.812c-0.494,0-0.864,0.082-1.358,0.082H0V59.271z"/>
</g>
<g transform="translate(308.656, 124.557)">
	<path fill="#AAAAAA" d="M0,44.371c0,8.808,6.544,13.748,19.757,14.736c1.234,0.082,2.47,0.164,3.704,0.164h33.464V50.71H23.214
		c-7.532,0-10.372-1.894-10.372-6.421V0H0V44.371z"/>
</g>
<g transform="translate(236.74, 124.666)">
	<path fill="#AAAAAA" d="M0,44.711V14.189C0,6.435,5.445,1.732,16.209,0.247C17.323,0.083,18.561,0,19.674,0H44.05
		c1.237,0,2.352,0.083,3.589,0.247c10.765,1.485,16.209,6.188,16.209,13.942v30.522c0,6.291-2.312,9.658-7.641,11.852l12.65,11.418
		H53.946l-10.234-9.238l-10.303,0.653H19.674c-2.351,0-4.825-0.331-7.548-1.073C3.96,56.096,0,51.806,0,44.711z M13.861,43.969
		c0,0.413,0.123,0.825,0.247,1.32c0.742,3.547,4.083,5.527,9.156,5.527h11.667l-10.717-9.675h14.911l9.347,8.438
		c1.722-0.918,2.856-2.322,3.252-4.125c0.123-0.412,0.123-0.825,0.123-1.237V14.932c0-0.33,0-0.743-0.123-1.156
		c-0.743-3.299-4.084-5.196-9.033-5.196H23.264c-5.691,0-9.403,2.475-9.403,6.352V43.969z"/>
</g>
<g transform="translate(241.59, -4.64258)">
	<path fill="#AAAAAA" d="M135.289,114.997c-7.894-0.214-13.924,0.52-19.079,2.694c-1.465,0.618-3.801,0.634-4.04,2.47
		c0.805,0.844,0.93,2.104,1.57,3.142c1.231,1.992,3.309,4.661,5.163,6.061c2.026,1.529,4.114,3.165,6.286,4.489
		c3.863,2.356,8.176,3.701,11.896,6.061c2.192,1.391,4.37,3.143,6.509,4.713c1.057,0.776,1.768,1.983,3.142,2.469
		c0-0.074,0-0.149,0-0.224c-0.722-0.919-0.908-2.183-1.571-3.143c-0.972-0.972-1.945-1.945-2.918-2.918
		c-2.853-3.787-6.475-7.113-10.325-9.876c-3.07-2.204-9.942-5.181-11.223-8.754c-0.075-0.075-0.149-0.15-0.225-0.225
		c2.177-0.245,4.726-1.033,6.735-1.571c3.375-0.905,6.391-0.671,9.876-1.571c1.571-0.449,3.142-0.899,4.714-1.347
		c0-0.3,0-0.598,0-0.898c-1.762-1.808-3.018-4.2-4.939-5.836c-5.026-4.28-10.512-8.556-16.161-12.122
		c-3.133-1.978-7.005-3.263-10.325-4.938c-1.117-0.563-3.079-0.856-3.817-1.796c-1.744-2.224-2.694-5.042-4.039-7.632
		c-2.818-5.426-5.585-11.352-8.081-17.06c-1.703-3.893-2.815-7.731-4.938-11.224C79.307,39.205,68.336,29.091,51.341,19.149
		c-3.616-2.114-7.97-2.949-12.571-4.04c-2.468-0.149-4.938-0.3-7.407-0.449c-1.507-0.63-3.075-2.474-4.489-3.367
		C21.244,7.736,6.803,0,2.633,10.171C0,16.591,6.568,22.855,8.917,26.108c1.649,2.282,3.76,4.841,4.938,7.407
		c0.775,1.687,0.909,3.378,1.572,5.163c1.632,4.396,3.051,9.18,5.162,13.243c1.067,2.056,2.243,4.222,3.592,6.06
		c0.827,1.128,2.244,1.625,2.468,3.367c-1.386,1.939-1.465,4.95-2.244,7.407c-3.508,11.062-2.185,24.811,2.918,32.997
		c1.566,2.513,5.254,7.903,10.325,5.836c4.436-1.807,3.445-7.406,4.714-12.346c0.287-1.12,0.111-1.943,0.673-2.693
		c0,0.074,0,0.149,0,0.225c1.347,2.693,2.694,5.387,4.041,8.08c2.99,4.816,8.297,9.849,12.794,13.245
		c2.332,1.761,4.168,4.806,7.183,5.836c0-0.075,0-0.149,0-0.225c-0.076,0-0.15,0-0.225,0c-0.584-0.911-1.498-1.288-2.244-2.02
		c-1.757-1.722-3.71-3.863-5.163-5.836c-4.09-5.553-7.705-11.631-10.998-17.958c-1.573-3.021-2.94-6.354-4.266-9.428
		c-0.511-1.186-0.505-2.978-1.57-3.592c-1.452,2.253-3.591,4.074-4.714,6.734c-1.796,4.252-2.028,9.438-2.693,14.815
		c-0.394,0.141-0.219,0.044-0.45,0.224c-3.126-0.754-4.225-3.972-5.386-6.733c-2.939-6.982-3.485-18.226-0.899-26.263
		c0.669-2.079,3.693-8.629,2.469-10.55c-0.584-1.917-2.512-3.025-3.591-4.49c-1.335-1.811-2.668-4.194-3.592-6.285
		c-2.405-5.444-3.528-11.556-6.06-17.059c-1.21-2.631-3.257-5.293-4.938-7.632c-1.861-2.591-3.945-4.499-5.387-7.633
		c-0.513-1.113-1.21-2.896-0.449-4.04c0.242-0.773,0.583-1.095,1.347-1.347c1.302-1.004,4.928,0.334,6.284,0.898
		c3.6,1.495,6.604,2.919,9.653,4.939c1.464,0.971,2.944,2.848,4.713,3.367c0.673,0,1.347,0,2.02,0c3.16,0.727,6.7,0.226,9.652,1.122
		c5.218,1.586,9.894,4.053,14.141,6.734c12.938,8.169,23.516,19.798,30.752,33.67c1.164,2.233,1.668,4.365,2.693,6.734
		c2.069,4.777,4.675,9.693,6.733,14.365c2.054,4.661,4.056,9.365,6.959,13.244c1.527,2.039,7.422,3.133,10.101,4.265
		c1.878,0.794,4.955,1.621,6.734,2.693c3.398,2.05,6.69,4.49,9.877,6.735C130.149,110.508,135.045,112.969,135.289,114.997z"/>
</g>
<g transform="translate(272.504, 24.8027)">
	<path fill="#AAAAAA" d="M4.041,0.03C2.395,0,1.231,0.21,0,0.479c0,0.075,0,0.15,0,0.225c0.075,0,0.15,0,0.225,0
		C1.01,2.316,2.396,3.355,3.367,4.744c0.748,1.571,1.496,3.143,2.245,4.713c0.074-0.074,0.15-0.149,0.224-0.224
		c1.39-0.98,2.027-2.547,2.02-4.938C7.299,3.709,7.217,2.974,6.734,2.274C6.092,1.343,4.85,0.814,4.041,0.03z"/>
</g>
<g transform="translate(371.609, 165.56)">
	<path fill="#AAAAAA" d="M0,9.463c0,5.654,4.467,9.464,9.464,9.464s9.464-3.81,9.464-9.464C18.928,3.81,14.461,0,9.464,0
		S0,3.81,0,9.463z M16.808,9.463c0,4.29-3.28,7.496-7.344,7.496c-4.113,0-7.344-3.206-7.344-7.496s3.231-7.496,7.344-7.496
		C13.528,1.967,16.808,5.173,16.808,9.463z M12.014,14.864h2.119L11.03,10.12c1.665-0.177,2.926-0.985,2.926-2.953
		c0-2.196-1.387-3.104-4.062-3.104H5.679v10.801h1.817v-4.669h1.691L12.014,14.864z M7.496,8.681V5.577H9.59
		c1.086,0,2.398,0.202,2.398,1.464c0,1.513-1.186,1.64-2.549,1.64H7.496z"/>
</g>
</svg>
