<?xml version="1.0" encoding="utf-8"?>
<!-- Generator: Adobe Illustrator 17.0.0, SVG Export Plug-In . SVG Version: 6.00 Build 0)  -->
<!DOCTYPE svg PUBLIC "-//W3C//DTD SVG 1.1//EN" "http://www.w3.org/Graphics/SVG/1.1/DTD/svg11.dtd">
<svg version="1.1" id="Layer_1" xmlns="http://www.w3.org/2000/svg" xmlns:xlink="http://www.w3.org/1999/xlink" x="0px" y="0px"
	 width="612px" height="792px" viewBox="0 0 612 792" enable-background="new 0 0 612 792" xml:space="preserve">
<g>
	<g id="Layer_2_1_">
		<g>
			<rect y="95.1" fill="#5D5D5D" width="612" height="601.8"/>
		</g>
	</g>
	<g id="Layer_2">
		<g>
			<rect x="48.45" y="142.7" fill="#AAAAAA" width="514.25" height="505.75"/>
		</g>
	</g>
	<g id="Layer_4">
		<g>
			<path fill="#FFFFFF" d="M147.9,265.1c0,0,39.1-0.85,70.55-0.85c32.3,0,55.25,7.65,70.55,21.25c14.45,12.75,24.65,34,24.65,58.65
				S306,387.5,292.4,401.1c-17.85,17.85-38.25,28.9-73.95,30.6c-10.2,0-18.7,0.85-18.7,0.85v79.05H147.9V265.1L147.9,265.1z
				 M199.75,388.35c5.95,0.85,9.35,0,17.85,0c28.05,0,45.05-17,45.05-42.5c0-22.95-14.45-41.65-40.8-42.5c-10.2,0-21.25,0-21.25,0
				v85H199.75z"/>
			<g>
				<path fill="#FFFFFF" d="M333.2,456.35c10.2,6.8,34.85,16.15,51.85,16.15s23.8-5.95,23.8-15.3c0-9.35-5.95-19.55-27.2-26.35
					c-37.4-12.75-51.85-28.05-51.85-49.3c0-34.85,28.9-60.35,73.95-60.35c21.25,0,38.25,6.8,49.3,12.75v41.65
					c-8.5-4.25-31.45-14.45-47.6-14.45c-13.6,0-21.25,5.95-21.25,15.3c0,8.5,6.8,13.6,29.75,21.25c34.85,11.9,49.3,29.75,49.3,56.95
					c0,34-26.35,61.2-79.05,59.5c-17.85-0.85-38.25-7.65-51.85-15.3L333.2,456.35L333.2,456.35z"/>
			</g>
		</g>
	</g>
</g>
</svg>
