<?xml version="1.0" encoding="utf-8"?>
<!-- Generator: Adobe Illustrator 17.0.0, SVG Export Plug-In . SVG Version: 6.00 Build 0)  -->
<!DOCTYPE svg PUBLIC "-//W3C//DTD SVG 1.1//EN" "http://www.w3.org/Graphics/SVG/1.1/DTD/svg11.dtd">
<svg version="1.1"
	 id="svg2" sodipodi:version="0.32" sodipodi:docname="logo-python-generic.svg" inkscape:version="0.43" xmlns:rdf="http://www.w3.org/1999/02/22-rdf-syntax-ns#" xmlns:cc="http://web.resource.org/cc/" xmlns:dc="http://purl.org/dc/elements/1.1/" xmlns:inkscape="http://www.inkscape.org/namespaces/inkscape" xmlns:sodipodi="http://inkscape.sourceforge.net/DTD/sodipodi-0.dtd" xmlns:svg="http://www.w3.org/2000/svg" sodipodi:docbase="/home/sdeibel"
	 xmlns="http://www.w3.org/2000/svg" xmlns:xlink="http://www.w3.org/1999/xlink" x="0px" y="0px" width="388.84px"
	 height="115.02px" viewBox="0 0 388.84 115.02" enable-background="new 0 0 388.84 115.02" xml:space="preserve">
<sodipodi:namedview  inkscape:window-y="0" inkscape:current-layer="svg2" inkscape:window-width="791" inkscape:window-x="0" inkscape:pageopacity="0.0" inkscape:pageshadow="2" inkscape:window-height="543" inkscape:cy="71.887497" pagecolor="#ffffff" inkscape:zoom="1.4340089" inkscape:cx="243.02499" borderopacity="1.0" bordercolor="#666666" id="base">
	</sodipodi:namedview>
<g id="g2303">
	<path id="path46" fill="#AAAAAA" d="M184.613,61.929c0-14.562-4.152-22.038-12.457-22.448c-3.304-0.156-6.531,0.37-9.669,1.589
		c-2.505,0.897-4.191,1.784-5.078,2.68v34.758c5.312,3.334,10.03,4.883,14.143,4.64C180.256,82.574,184.613,75.507,184.613,61.929z
		 M194.858,62.534c0,7.398-1.735,13.539-5.224,18.422c-3.889,5.527-9.279,8.373-16.17,8.529c-5.195,0.166-10.546-1.462-16.053-4.874
		v31.59l-8.909-3.178V42.903c1.462-1.793,3.343-3.333,5.624-4.64c5.302-3.09,11.745-4.679,19.328-4.757l0.127,0.127
		c6.93-0.088,12.272,2.758,16.024,8.529C193.103,47.455,194.858,54.239,194.858,62.534z"/>
	<path id="path48" fill="#AAAAAA" d="M249.305,83.266c0,9.923-0.994,16.794-2.983,20.615c-1.998,3.821-5.8,6.872-11.414,9.143
		c-4.552,1.793-9.474,2.768-14.757,2.934l-1.472-5.614c5.371-0.731,9.153-1.462,11.346-2.193c4.318-1.462,7.281-3.704,8.909-6.706
		c1.306-2.447,1.949-7.115,1.949-14.026v-2.32c-6.092,2.768-12.476,4.143-19.153,4.143c-4.386,0-8.256-1.374-11.589-4.143
		c-3.743-3.012-5.614-6.833-5.614-11.463V36.558l8.909-3.051v37.322c0,3.987,1.287,7.057,3.86,9.211
		c2.573,2.154,5.907,3.187,9.991,3.109c4.084-0.088,8.46-1.667,13.11-4.757v-43.54h8.909V83.266z"/>
	<path id="path50" fill="#AAAAAA" d="M284.082,88.997c-1.062,0.088-2.037,0.127-2.934,0.127c-5.039,0-8.967-1.199-11.775-3.606
		c-2.797-2.408-4.201-5.731-4.201-9.971v-35.09h-6.102v-5.605h6.102V19.968l8.899-3.168v18.052h10.01v5.605h-10.01v34.846
		c0,3.343,0.897,5.712,2.69,7.096c1.54,1.14,3.987,1.793,7.32,1.959V88.997z"/>
	<path id="path52" fill="#AAAAAA" d="M338.023,88.266h-8.909V53.878c0-3.499-0.819-6.511-2.447-9.026
		c-1.881-2.846-4.493-4.269-7.846-4.269c-4.084,0-9.191,2.154-15.322,6.462v41.22h-8.909V6.069l8.909-2.807V40.7
		c5.692-4.143,11.911-6.219,18.666-6.219c4.718,0,8.538,1.589,11.463,4.757c2.934,3.168,4.396,7.115,4.396,11.833V88.266
		L338.023,88.266z"/>
	<path id="path54" fill="#AAAAAA" d="M385.374,60.526c0-5.595-1.062-10.215-3.178-13.87c-2.515-4.454-6.423-6.803-11.706-7.047
		c-9.767,0.565-14.64,7.564-14.64,20.976c0,6.15,1.014,11.287,3.061,15.41c2.612,5.254,6.531,7.846,11.755,7.759
		C380.471,83.675,385.374,75.936,385.374,60.526z M395.131,60.584c0,7.963-2.037,14.591-6.102,19.884
		c-4.474,5.926-10.654,8.899-18.539,8.899c-7.817,0-13.909-2.973-18.305-8.899c-3.987-5.293-5.975-11.921-5.975-19.884
		c0-7.486,2.154-13.782,6.462-18.909c4.552-5.439,10.537-8.168,17.935-8.168c7.398,0,13.422,2.729,18.061,8.168
		C392.977,46.802,395.131,53.099,395.131,60.584z"/>
	<path id="path56" fill="#AAAAAA" d="M446.206,88.266h-8.909V51.929c0-3.987-1.199-7.096-3.597-9.338
		c-2.398-2.232-5.595-3.314-9.581-3.226c-4.23,0.078-8.256,1.462-12.077,4.143v44.759h-8.909v-45.86
		c5.127-3.733,9.845-6.17,14.153-7.31c4.065-1.062,7.651-1.589,10.741-1.589c2.115,0,4.104,0.205,5.975,0.614
		c3.499,0.809,6.345,2.31,8.538,4.513c2.447,2.437,3.665,5.361,3.665,8.782V88.266z"/>
	<path id="path1948" fill="#AAAAAA" d="M60.51,6.398c-4.584,0.021-8.961,0.412-12.812,1.094c-11.346,2.005-13.406,6.2-13.406,13.937
		v10.219h26.812v3.406H34.291H24.229c-7.792,0-14.616,4.684-16.75,13.594c-2.462,10.213-2.571,16.586,0,27.25
		c1.906,7.938,6.458,13.594,14.25,13.594h9.219v-12.25c0-8.85,7.657-16.656,16.75-16.656h26.781c7.455,0,13.406-6.138,13.406-13.625
		V21.429c0-7.266-6.13-12.725-13.406-13.937C69.873,6.725,65.094,6.377,60.51,6.398z M46.01,14.617c2.77,0,5.031,2.299,5.031,5.125
		c0,2.816-2.262,5.094-5.031,5.094c-2.779,0-5.031-2.277-5.031-5.094C40.979,16.915,43.231,14.617,46.01,14.617z"/>
	<path id="path1950" fill="#AAAAAA" d="M91.229,35.054V46.96c0,9.231-7.826,17-16.75,17H47.698c-7.336,0-13.406,6.278-13.406,13.625
		v25.531c0,7.266,6.319,11.54,13.406,13.625c8.487,2.496,16.626,2.947,26.781,0c6.75-1.954,13.406-5.888,13.406-13.625V92.898
		H61.104v-3.406h26.781h13.406c7.792,0,10.696-5.435,13.406-13.594c2.799-8.399,2.68-16.476,0-27.25
		c-1.926-7.757-5.604-13.594-13.406-13.594H91.229z M76.166,99.71c2.779,0,5.031,2.277,5.031,5.094c0,2.826-2.252,5.125-5.031,5.125
		c-2.77,0-5.031-2.299-5.031-5.125C71.135,101.988,73.397,99.71,76.166,99.71z"/>
	<path id="text3004" fill="#AAAAAA" d="M463.554,26.909h1.562v-9.796h3.7v-1.168h-8.962v1.168h3.7V26.909 M470.201,26.909h1.334
		v-8.947l2.896,8.946h1.486l3.018-8.916v8.917h1.456V15.945h-1.926l-3.298,9.393l-2.813-9.393h-2.153V26.909"/>
	<path id="path1894" opacity="0.4438" fill="#AAAAAA" enable-background="new    " d="M97.339,134.098
		c0,3.848-16.087,6.967-35.931,6.967s-35.931-3.119-35.931-6.967c0-3.848,16.087-6.967,35.931-6.967S97.339,130.25,97.339,134.098z"
		/>
</g>
</svg>
