<?xml version="1.0" encoding="utf-8"?>
<!-- Generator: Adobe Illustrator 17.0.0, SVG Export Plug-In . SVG Version: 6.00 Build 0)  -->
<!DOCTYPE svg PUBLIC "-//W3C//DTD SVG 1.1//EN" "http://www.w3.org/Graphics/SVG/1.1/DTD/svg11.dtd">
<svg version="1.1"
	 id="svg3120" sodipodi:docname="Ruby on Rails.svg" inkscape:version="0.48.0 r9654" xmlns:rdf="http://www.w3.org/1999/02/22-rdf-syntax-ns#" xmlns:cc="http://creativecommons.org/ns#" xmlns:dc="http://purl.org/dc/elements/1.1/" xmlns:inkscape="http://www.inkscape.org/namespaces/inkscape" xmlns:sodipodi="http://sodipodi.sourceforge.net/DTD/sodipodi-0.dtd" xmlns:svg="http://www.w3.org/2000/svg"
	 xmlns="http://www.w3.org/2000/svg" xmlns:xlink="http://www.w3.org/1999/xlink" x="0px" y="0px" width="122.498px"
	 height="157.564px" viewBox="0 0 122.498 157.564" enable-background="new 0 0 122.498 157.564" xml:space="preserve">
<sodipodi:namedview  fit-margin-right="0" inkscape:window-y="0" inkscape:current-layer="g3911" fit-margin-bottom="0" inkscape:window-width="1152" inkscape:window-x="0" inkscape:document-units="px" inkscape:pageopacity="0.0" inkscape:pageshadow="2" inkscape:window-height="672" inkscape:window-maximized="1" inkscape:cy="78.29907" showgrid="false" pagecolor="#ffffff" fit-margin-left="0" inkscape:zoom="2.5505618" inkscape:cx="61.012576" borderopacity="1.0" fit-margin-top="0" bordercolor="#666666" id="base">
	</sodipodi:namedview>
<g id="layer1" transform="translate(-273.27313,-435.95455)" inkscape:groupmode="layer" inkscape:label="Red1">
	<path id="path3907" inkscape:connector-curvature="0" sodipodi:nodetypes="cszcszc" fill="#6F6F6F" d="M275.233,591.679
		c0,0,0.238-37.322,0.238-75.263c0-73.488-6.192-78.962,26.781-78.962s91.779,0,91.779,0s0,71.106,0,106s6.523,48.564-30.148,48.564
		S275.234,591.679,275.233,591.679L275.233,591.679z"/>
</g>
<g id="layer4" transform="translate(-273.27313,-435.95455)" inkscape:groupmode="layer" inkscape:label="Red2">
	<path id="path3947" inkscape:connector-curvature="0" fill="#6F6F6F" d="M350.903,451.318c0,0,5.881,1.176,10.978,9.802
		c5.097,8.626,32.15,75.67,32.15,75.67v-54.498l-25.092-40.775l7.057,8.626l13.33-10.978l-17.251-1.176L350.903,451.318z"/>
</g>
<g id="layer3" transform="translate(-273.27313,-435.95455)" inkscape:groupmode="layer" inkscape:label="Red3">
	<path id="path3934" inkscape:connector-curvature="0" opacity="0.6682" fill="#6F6F6F" enable-background="new    " d="
		M298.758,438.38c0,0,38.815,25.877,57.634,30.974c18.819,5.097,38.423,10.586,38.423,10.586l-44.696,109.78l19.211,0.784
		l25.092-61.947l-0.784-90.568L298.758,438.38z"/>
	<path id="path3960" inkscape:connector-curvature="0" sodipodi:nodetypes="cccscc" fill="#FFFFFF" fill-opacity="0.4396" d="
		M334.828,554.041l40.378,38.834l-75.272-1.588c0,0-2.352-23.916-1.568-36.463c0.784-12.546,4.705-12.546,4.705-12.546
		L334.828,554.041z"/>
</g>
<g id="layer5" transform="translate(-273.27313,-435.95455)" inkscape:groupmode="layer" inkscape:label="Red4">
	<path id="path3958" inkscape:connector-curvature="0" sodipodi:nodetypes="cccccccccc" fill="#6F6F6F" fill-opacity="0.3623" d="
		M372.075,592.071l-36.463-37.639l-33.326-12.546l-25.877-57.634l27.445-45.872l-18.427-0.784l-7.449,7.057l-2.744,5.489
		l-1.96,142.714L372.075,592.071z"/>
	<path id="path3962" inkscape:connector-curvature="0" opacity="0.5" fill="#6F6F6F" enable-background="new    " d="
		M394.423,532.085c0,0-36.855,11.762-58.811,22.74c-21.956,10.978-33.718,37.639-33.718,37.639s47.048-2.352,64.692-1.568
		s25.877,0.784,27.445-23.916C395.599,542.278,394.423,532.085,394.423,532.085L394.423,532.085z"/>
</g>
<g id="layer7" transform="translate(-273.27313,-435.95455)" inkscape:groupmode="layer" inkscape:label="RAILS">
	<path id="path3993" inkscape:connector-curvature="0" fill="#FFFFFF" d="M286.594,555.5v23.156h5.906v-6.031l5.375,5.375h9.062
		l-7.188-7.188c0,0,5.171-0.083,5.562-7.562c0-6.861-5.177-7.75-11.156-7.75H286.594z M292.781,561.781h5.094v4.125h-5.094V561.781z
		"/>
	<path id="path3997" inkscape:connector-curvature="0" fill="#FFFFFF" d="M318.344,555.594c-3.234-0.018-7.719,0.282-7.719,6.375
		v16.094h6.062v-3.938h5.875v3.844h6.094v-16.875c0-5.293-5.881-5.5-9.031-5.5C319.231,555.594,318.806,555.597,318.344,555.594z
		 M316.781,561.406h5.688v6.344h-5.688V561.406z"/>
	<rect id="rect4001" x="334.73" y="555.609" fill="#FFFFFF" width="6.273" height="22.152"/>
	<path id="path4003" inkscape:connector-curvature="0" fill="#FFFFFF" d="M347.57,555.903v22.152h15.095v-5.881h-8.92v-16.369
		L347.57,555.903z"/>
	<path id="path4005" inkscape:connector-curvature="0" sodipodi:nodetypes="ccccsssccsssssc" fill="#FFFFFF" d="M382.661,555.707
		v5.979h-10.096v2.156c0,0,2.058,0,4.313,0c2.254,0,6.959-0.098,6.959,6.959s-3.235,7.449-9.802,7.449s-7.939,0-7.939,0v-5.391
		c0,0,6.371,0,9.116,0c2.745,0,2.896-0.893,2.896-1.672s-1.403-1.141-4.257-1.141s-8.147-1.402-8.147-6.891s2.745-7.547,8.233-7.547
		S382.661,555.707,382.661,555.707L382.661,555.707z"/>
</g>
<g id="layer6" transform="translate(-273.27313,-435.95455)" inkscape:groupmode="layer" inkscape:label="Logo (white part)">
	<path id="path3966" inkscape:connector-curvature="0" sodipodi:nodetypes="ccssccsszc" fill="#FFFFFF" d="M292.092,548.944h52.145
		c0,0-11.566-26.269-8.626-50.381s21.956-35.09,32.738-36.267c10.782-1.176,16.663,5.489,16.663,5.489l2.352-3.529
		c0,0-15.487-15.683-35.09-13.919s-33.13,14.703-41.559,30.385s-13.33,26.661-16.663,43.128
		C290.72,540.318,292.092,548.944,292.092,548.944z"/>
	<path id="path3968" inkscape:connector-curvature="0" fill="#FFFFFF" d="M281.703,522.675l10.194,0.784l-1.764,10.194l-9.606-1.176
		L281.703,522.675z"/>
	<path id="path3970" inkscape:connector-curvature="0" fill="#FFFFFF" d="M297.778,501.111l2.745-7.645l-9.018-3.529l-2.941,8.233
		L297.778,501.111z"/>
	<path id="path3972" inkscape:connector-curvature="0" fill="#FFFFFF" d="M310.52,474.842l5.293-6.273l-6.861-4.509l-5.489,6.077
		L310.52,474.842z"/>
	<path id="path3974" inkscape:connector-curvature="0" fill="#FFFFFF" d="M324.438,450.534l4.705,5.685l6.469-3.725l-4.705-5.293
		L324.438,450.534z"/>
	<path id="path3976" inkscape:connector-curvature="0" fill="#FFFFFF" d="M347.374,444.065l1.176,5.685l8.037-0.196l-0.784-5.097
		L347.374,444.065z"/>
	<path id="path3978" inkscape:connector-curvature="0" fill="#FFFFFF" d="M374.623,450.142l-0.196,3.529l5.489,2.941l1.176-1.764
		L374.623,450.142z"/>
	<path id="path3980" inkscape:connector-curvature="0" fill="#FFFFFF" d="M373.447,465.237v2.941l5.293,0.588v-2.352
		L373.447,465.237z"/>
	<path id="path3982" inkscape:connector-curvature="0" fill="#FFFFFF" d="M356.588,467.785l2.548,4.705l3.725-2.941l-0.784-3.137
		L356.588,467.785z"/>
	<path id="path3984" inkscape:connector-curvature="0" fill="#FFFFFF" d="M348.551,473.862l3.921,5.881l-2.352,4.117l-5.685-6.273
		L348.551,473.862z"/>
	<path id="path3986" inkscape:connector-curvature="0" fill="#FFFFFF" d="M340.709,490.133l-2.548,5.097l6.665,5.685l1.568-6.469
		L340.709,490.133z"/>
	<path id="path3988" inkscape:connector-curvature="0" fill="#FFFFFF" d="M337.965,507.972l-0.392,6.861l8.233,3.529l-0.392-6.469
		L337.965,507.972z"/>
	<path id="path3990" inkscape:connector-curvature="0" fill="#FFFFFF" d="M340.317,532.281l1.96,7.057l10.39,0.588l-3.725-7.645
		H340.317z"/>
</g>
<g id="g3911" transform="translate(-273.27313,-435.95455)" inkscape:groupmode="layer" inkscape:label="Red.border">
	
		<path id="path3913" inkscape:connector-curvature="0" sodipodi:nodetypes="cszcszc" fill="none" stroke="#6F6F6F" stroke-width="3" d="
		M275.233,591.679c0,0,0.238-37.322,0.238-75.263c0-73.488-6.192-78.962,26.781-78.962s91.779,0,91.779,0s0,71.106,0,106
		s4.954,48.564-30.148,48.564S275.234,591.679,275.233,591.679L275.233,591.679z"/>
</g>
</svg>
