<?xml version="1.0" encoding="utf-8"?>
<!-- Generator: Adobe Illustrator 17.0.0, SVG Export Plug-In . SVG Version: 6.00 Build 0)  -->
<!DOCTYPE svg PUBLIC "-//W3C//DTD SVG 1.1//EN" "http://www.w3.org/Graphics/SVG/1.1/DTD/svg11.dtd">
<svg version="1.1"
	 id="Layer_1" sodipodi:docname="Logo-Ruby.svg" inkscape:version="0.48.0 r9654" xmlns:rdf="http://www.w3.org/1999/02/22-rdf-syntax-ns#" xmlns:cc="http://creativecommons.org/ns#" xmlns:dc="http://purl.org/dc/elements/1.1/" xmlns:inkscape="http://www.inkscape.org/namespaces/inkscape" xmlns:sodipodi="http://sodipodi.sourceforge.net/DTD/sodipodi-0.dtd" xmlns:svg="http://www.w3.org/2000/svg"
	 xmlns="http://www.w3.org/2000/svg" xmlns:xlink="http://www.w3.org/1999/xlink" x="0px" y="0px" width="198.13px"
	 height="197.58px" viewBox="0 0 198.13 197.58" enable-background="new 0 0 198.13 197.58" xml:space="preserve">
<sodipodi:namedview  guidetolerance="10" gridtolerance="10" objecttolerance="10" inkscape:window-y="24" inkscape:current-layer="Layer_1" inkscape:window-width="1036" inkscape:window-x="882" inkscape:pageopacity="0" inkscape:pageshadow="2" inkscape:window-height="1124" inkscape:window-maximized="0" inkscape:cy="98.790004" showgrid="false" pagecolor="#ffffff" inkscape:zoom="1.3412289" inkscape:cx="99.065005" borderopacity="1" bordercolor="#666666" id="namedview3487">
	</sodipodi:namedview>
<linearGradient id="polygon3282_1_" gradientUnits="userSpaceOnUse" x1="174.0731" y1="-16.9691" x2="132.2757" y2="56.8264" gradientTransform="matrix(1 0 0 -1 0 198.58)">
	<stop  offset="0" style="stop-color:#FB7655"/>
	<stop  offset="0" style="stop-color:#FB7655"/>
	<stop  offset="0.41" style="stop-color:#E42B1E"/>
	<stop  offset="0.99" style="stop-color:#990000"/>
	<stop  offset="1" style="stop-color:#990000"/>
</linearGradient>
<polygon id="polygon3282" fill="url(#polygon3282_1_)" points="153.5,130.41 40.38,197.58 186.849,187.641 198.13,39.95 "/>
<linearGradient id="polygon3293_1_" gradientUnits="userSpaceOnUse" x1="194.8951" y1="45.0226" x2="141.0278" y2="81.1709" gradientTransform="matrix(1 0 0 -1 0 198.58)">
	<stop  offset="0" style="stop-color:#871101"/>
	<stop  offset="0" style="stop-color:#871101"/>
	<stop  offset="0.99" style="stop-color:#911209"/>
	<stop  offset="1" style="stop-color:#911209"/>
</linearGradient>
<polygon id="polygon3293" fill="url(#polygon3293_1_)" points="187.089,187.54 174.5,100.65 140.209,145.93 "/>
<linearGradient id="polygon3304_1_" gradientUnits="userSpaceOnUse" x1="151.7954" y1="-19.2052" x2="97.9297" y2="16.942" gradientTransform="matrix(1 0 0 -1 0 198.58)">
	<stop  offset="0" style="stop-color:#871101"/>
	<stop  offset="0" style="stop-color:#871101"/>
	<stop  offset="0.99" style="stop-color:#911209"/>
	<stop  offset="1" style="stop-color:#911209"/>
</linearGradient>
<polygon id="polygon3304" fill="url(#polygon3304_1_)" points="187.259,187.54 95.03,180.3 40.87,197.391 "/>
<linearGradient id="polygon3319_1_" gradientUnits="userSpaceOnUse" x1="38.6962" y1="71.1894" x2="47.0468" y2="16.9186" gradientTransform="matrix(1 0 0 -1 0 198.58)">
	<stop  offset="0" style="stop-color:#FFFFFF"/>
	<stop  offset="0" style="stop-color:#FFFFFF"/>
	<stop  offset="0.23" style="stop-color:#E57252"/>
	<stop  offset="0.46" style="stop-color:#DE3B20"/>
	<stop  offset="0.99" style="stop-color:#A60003"/>
	<stop  offset="1" style="stop-color:#A60003"/>
</linearGradient>
<polygon id="polygon3319" fill="url(#polygon3319_1_)" points="41,197.41 64.04,121.93 13.34,132.771 "/>
<linearGradient id="polygon3334_1_" gradientUnits="userSpaceOnUse" x1="96.133" y1="121.8647" x2="99.2098" y2="66.4779" gradientTransform="matrix(1 0 0 -1 0 198.58)">
	<stop  offset="0" style="stop-color:#FFFFFF"/>
	<stop  offset="0" style="stop-color:#FFFFFF"/>
	<stop  offset="0.23" style="stop-color:#E4714E"/>
	<stop  offset="0.56" style="stop-color:#BE1A0D"/>
	<stop  offset="0.99" style="stop-color:#A80D00"/>
	<stop  offset="1" style="stop-color:#A80D00"/>
</linearGradient>
<polygon id="polygon3334" fill="url(#polygon3334_1_)" points="140.2,146.18 119,63.14 58.33,120.01 "/>
<linearGradient id="polygon3349_1_" gradientUnits="userSpaceOnUse" x1="147.1034" y1="173.0591" x2="156.3145" y2="133.3639" gradientTransform="matrix(1 0 0 -1 0 198.58)">
	<stop  offset="0" style="stop-color:#FFFFFF"/>
	<stop  offset="0" style="stop-color:#FFFFFF"/>
	<stop  offset="0.18" style="stop-color:#E46342"/>
	<stop  offset="0.4" style="stop-color:#C82410"/>
	<stop  offset="0.99" style="stop-color:#A80D00"/>
	<stop  offset="1" style="stop-color:#A80D00"/>
</linearGradient>
<polygon id="polygon3349" fill="url(#polygon3349_1_)" points="193.32,64.31 135.97,17.47 120,69.1 "/>
<linearGradient id="polygon3362_1_" gradientUnits="userSpaceOnUse" x1="118.9763" y1="187.0381" x2="158.6688" y2="206.8844" gradientTransform="matrix(1 0 0 -1 0 198.58)">
	<stop  offset="0" style="stop-color:#FFFFFF"/>
	<stop  offset="0" style="stop-color:#FFFFFF"/>
	<stop  offset="0.54" style="stop-color:#C81F11"/>
	<stop  offset="0.99" style="stop-color:#BF0905"/>
	<stop  offset="1" style="stop-color:#BF0905"/>
</linearGradient>
<polygon id="polygon3362" fill="url(#polygon3362_1_)" points="166.5,0.77 132.77,19.41 111.49,0.52 "/>
<linearGradient id="polygon3375_1_" gradientUnits="userSpaceOnUse" x1="3.9037" y1="85.0254" x2="7.1706" y2="52.3173" gradientTransform="matrix(1 0 0 -1 0 198.58)">
	<stop  offset="0" style="stop-color:#FFFFFF"/>
	<stop  offset="0" style="stop-color:#FFFFFF"/>
	<stop  offset="0.31" style="stop-color:#DE4024"/>
	<stop  offset="0.99" style="stop-color:#BF190B"/>
	<stop  offset="1" style="stop-color:#BF190B"/>
</linearGradient>
<polygon id="polygon3375" fill="url(#polygon3375_1_)" points="0,158.09 14.13,132.32 2.7,101.62 "/>
<path id="path3377" inkscape:connector-curvature="0" fill="#FFFFFF" d="M1.94,100.65l11.5,32.62l49.97-11.211l57.05-53.02
	l16.1-51.139L111.209,0l-43.1,16.13C54.53,28.76,28.18,53.75,27.23,54.22C26.29,54.7,9.83,85.81,1.94,100.65z"/>
<linearGradient id="path3400_1_" gradientUnits="userSpaceOnUse" x1="-18.5562" y1="43.476" x2="135.0147" y2="201.3898" gradientTransform="matrix(1 0 0 -1 0 198.58)">
	<stop  offset="0" style="stop-color:#BD0012"/>
	<stop  offset="0" style="stop-color:#BD0012"/>
	<stop  offset="0.07" style="stop-color:#FFFFFF"/>
	<stop  offset="0.17" style="stop-color:#FFFFFF"/>
	<stop  offset="0.27" style="stop-color:#C82F1C"/>
	<stop  offset="0.33" style="stop-color:#820C01"/>
	<stop  offset="0.46" style="stop-color:#A31601"/>
	<stop  offset="0.72" style="stop-color:#B31301"/>
	<stop  offset="0.99" style="stop-color:#E82609"/>
	<stop  offset="1" style="stop-color:#E82609"/>
</linearGradient>
<path id="path3400" inkscape:connector-curvature="0" fill="url(#path3400_1_)" d="M42.32,42.05
	c29.43-29.18,67.37-46.42,81.93-31.73c14.551,14.69-0.88,50.39-30.31,79.56s-66.9,47.36-81.45,32.67
	C-2.07,107.87,12.89,71.22,42.32,42.05z"/>
<linearGradient id="path3413_1_" gradientUnits="userSpaceOnUse" x1="99.0749" y1="27.5477" x2="52.8179" y2="38.9643" gradientTransform="matrix(1 0 0 -1 0 198.58)">
	<stop  offset="0" style="stop-color:#8C0C01"/>
	<stop  offset="0" style="stop-color:#8C0C01"/>
	<stop  offset="0.54" style="stop-color:#990C00"/>
	<stop  offset="0.99" style="stop-color:#A80D0E"/>
	<stop  offset="1" style="stop-color:#A80D0E"/>
</linearGradient>
<path id="path3413" inkscape:connector-curvature="0" fill="url(#path3413_1_)" d="M41,197.38l22.86-75.72l75.92,24.39
	C112.33,171.79,81.8,193.55,41,197.38z"/>
<linearGradient id="path3424_1_" gradientUnits="userSpaceOnUse" x1="178.5259" y1="83.0654" x2="137.4327" y2="119.896" gradientTransform="matrix(1 0 0 -1 0 198.58)">
	<stop  offset="0" style="stop-color:#7E110B"/>
	<stop  offset="0" style="stop-color:#7E110B"/>
	<stop  offset="0.99" style="stop-color:#9E0C00"/>
	<stop  offset="1" style="stop-color:#9E0C00"/>
</linearGradient>
<path id="path3424" inkscape:connector-curvature="0" fill="url(#path3424_1_)" d="M120.56,68.89l19.49,77.2
	c22.93-24.11,43.51-50.03,53.589-82.09C193.639,64,120.56,68.89,120.56,68.89z"/>
<linearGradient id="path3435_1_" gradientUnits="userSpaceOnUse" x1="193.623" y1="150.6426" x2="173.1537" y2="172.5258" gradientTransform="matrix(1 0 0 -1 0 198.58)">
	<stop  offset="0" style="stop-color:#79130D"/>
	<stop  offset="0" style="stop-color:#79130D"/>
	<stop  offset="0.99" style="stop-color:#9E120B"/>
	<stop  offset="1" style="stop-color:#9E120B"/>
</linearGradient>
<path id="path3435" inkscape:connector-curvature="0" fill="url(#path3435_1_)" d="M193.44,64.39c7.8-23.54,9.6-57.31-27.181-63.58
	l-30.18,16.67L193.44,64.39z"/>
<path id="path3437" inkscape:connector-curvature="0" fill="#9E1209" d="M0,157.75c1.08,38.851,29.11,39.43,41.05,39.771
	L13.47,133.11L0,157.75z"/>
<radialGradient id="path3448_1_" cx="143.8315" cy="119.1918" r="50.3576" gradientTransform="matrix(1 0 0 -1 0 198.58)" gradientUnits="userSpaceOnUse">
	<stop  offset="0" style="stop-color:#A80D00"/>
	<stop  offset="0" style="stop-color:#A80D00"/>
	<stop  offset="0.99" style="stop-color:#7E0E08"/>
	<stop  offset="1" style="stop-color:#7E0E08"/>
</radialGradient>
<path id="path3448" inkscape:connector-curvature="0" fill="url(#path3448_1_)" d="M120.669,69.01
	c17.62,10.83,53.131,32.58,53.851,32.98c1.119,0.63,15.31-23.93,18.53-37.81C193.05,64.18,120.669,69.01,120.669,69.01z"/>
<radialGradient id="path3459_1_" cx="74.0923" cy="52.829" r="66.9437" gradientTransform="matrix(1 0 0 -1 0 198.58)" gradientUnits="userSpaceOnUse">
	<stop  offset="0" style="stop-color:#A30C00"/>
	<stop  offset="0" style="stop-color:#A30C00"/>
	<stop  offset="0.99" style="stop-color:#800E08"/>
	<stop  offset="1" style="stop-color:#800E08"/>
</radialGradient>
<path id="path3459" inkscape:connector-curvature="0" fill="url(#path3459_1_)" d="M63.83,121.66l30.56,58.96
	c18.07-9.8,32.22-21.74,45.18-34.53L63.83,121.66z"/>
<linearGradient id="path3472_1_" gradientUnits="userSpaceOnUse" x1="26.6702" y1="1.2442" x2="9.989" y2="57.8381" gradientTransform="matrix(1 0 0 -1 0 198.58)">
	<stop  offset="0" style="stop-color:#8B2114"/>
	<stop  offset="0" style="stop-color:#8B2114"/>
	<stop  offset="0.43" style="stop-color:#9E100A"/>
	<stop  offset="0.99" style="stop-color:#B3100C"/>
	<stop  offset="1" style="stop-color:#B3100C"/>
</linearGradient>
<path id="path3472" inkscape:connector-curvature="0" fill="url(#path3472_1_)" d="M13.35,133.19l-4.33,51.56
	c8.17,11.16,19.41,12.13,31.2,11.26C31.69,174.78,14.65,132.33,13.35,133.19z"/>
<linearGradient id="path3485_1_" gradientUnits="userSpaceOnUse" x1="154.6412" y1="188.7822" x2="192.0391" y2="172.2742" gradientTransform="matrix(1 0 0 -1 0 198.58)">
	<stop  offset="0" style="stop-color:#B31000"/>
	<stop  offset="0" style="stop-color:#B31000"/>
	<stop  offset="0.44" style="stop-color:#910F08"/>
	<stop  offset="0.99" style="stop-color:#791C12"/>
	<stop  offset="1" style="stop-color:#791C12"/>
</linearGradient>
<path id="path3485" inkscape:connector-curvature="0" fill="url(#path3485_1_)" d="M135.9,17.61l60.71,8.52
	c-3.24-13.73-13.19-22.59-30.15-25.36L135.9,17.61z"/>
</svg>
