<?xml version="1.0" encoding="utf-8"?>
<!-- Generator: Adobe Illustrator 17.0.0, SVG Export Plug-In . SVG Version: 6.00 Build 0)  -->
<!DOCTYPE svg PUBLIC "-//W3C//DTD SVG 1.1//EN" "http://www.w3.org/Graphics/SVG/1.1/DTD/svg11.dtd">
<svg version="1.1" id="Layer_1" xmlns="http://www.w3.org/2000/svg" xmlns:xlink="http://www.w3.org/1999/xlink" x="0px" y="0px"
	 width="612px" height="792px" viewBox="0 0 612 792" enable-background="new 0 0 612 792" xml:space="preserve">
<path fill="#AAAAAA" d="M527,430c-21.25,0-39.95,5.1-55.25,12.75c-5.95-11.05-11.9-21.25-12.75-28.9c-0.85-8.5-2.55-13.6-0.85-23.8
	c1.7-10.2,7.65-24.65,7.65-26.35c0-0.85-1.7-6.8-13.6-6.8c-12.75,0-22.95,2.55-23.8,5.95c-0.85,3.4-3.4,11.05-5.1,18.7
	c-1.7,11.05-24.65,51-37.4,72.25c-4.25-8.5-7.65-15.3-8.5-21.25c-0.85-8.5-2.55-13.6-0.85-23.8s7.65-24.65,7.65-26.35
	c0-0.85-1.7-6.8-13.6-6.8c-12.75,0-22.95,2.55-23.8,5.95c-0.85,3.4-2.55,11.05-5.1,18.7s-32.3,73.95-39.95,90.95
	c-4.25,8.5-7.65,16.15-10.2,20.4l0,0c0,0,0,0-0.85,0.85c-1.7,4.25-3.4,6.8-3.4,6.8l0,0c-1.7,2.55-3.4,5.95-4.25,5.95
	c-0.85,0-1.7-7.65,0-18.7c4.25-22.95,15.3-58.65,15.3-60.35c0-0.85,1.7-6.8-6.8-10.2s-11.9,1.7-12.75,1.7c-0.85,0-1.7,1.7-1.7,1.7
	s9.35-40.8-18.7-40.8c-17.85,0-41.65,19.55-54.4,36.55c-7.65,4.25-23.8,12.75-40.8,22.1c-6.8,4.25-13.6,7.65-19.55,11.05
	c-0.85-0.85-0.85-0.85-1.7-1.7c-34-36.55-97.75-62.05-95.2-111.35c0.85-17.85,6.8-64.6,121.55-122.4
	c94.35-46.75,169.15-34,181.9-5.1c18.7,40.8-39.95,116.45-137.7,127.5c-37.4,4.25-56.95-10.2-61.2-15.3
	c-5.1-5.95-5.95-5.95-7.65-5.1c-3.4,1.7-0.85,6.8,0,9.35c2.55,7.65,14.45,21.25,34.85,28.05c17.85,5.95,61.2,9.35,113.9-11.05
	c58.65-22.95,105.4-85.85,91.8-139.4c-14.45-53.55-103.7-70.55-188.7-40.8C145.35,198.8,90.95,226.85,51,263.4
	C4.25,306.75-3.4,345,0,361.15C11.05,417.25,89.25,453.8,119.85,481c-1.7,0.85-2.55,1.7-4.25,2.55c-15.3,7.65-74.8,39.1-90.1,71.4
	c-17,37.4,2.55,63.75,15.3,67.15c39.95,11.05,80.75-8.5,102.85-41.65c22.1-33.15,19.55-75.65,9.35-95.2c0,0,0-0.85-0.85-0.85
	c4.25-2.55,8.5-5.1,11.9-6.8c7.65-5.1,15.3-9.35,22.1-12.75c-4.25,10.2-6.8,22.95-7.65,40.8c-1.7,21.25,6.8,48.45,18.7,58.65
	c5.1,5.1,11.05,5.1,14.45,5.1c13.6,0,19.55-11.05,25.5-23.8c7.65-16.15,15.3-34,15.3-34s-9.35,50.15,15.3,50.15
	c8.5,0,17.85-11.9,22.1-17.85l0,0c0,0,0,0,0.85-0.85c0.85-1.7,1.7-2.55,1.7-2.55l0,0c3.4-5.95,11.9-20.4,23.8-44.2
	c15.3-30.6,30.6-68.85,30.6-68.85s1.7,9.35,5.95,24.65c2.55,9.35,8.5,18.7,12.75,28.9c-3.4,5.1-5.95,7.65-5.95,7.65l0,0
	c-2.55,4.25-5.95,7.65-9.35,11.9C338.3,515,323,532,321.3,536.25c-2.55,5.95-1.7,9.35,2.55,13.6c3.4,2.55,9.35,2.55,15.3,2.55
	c11.05-0.85,18.7-3.4,22.1-5.1c5.95-1.7,12.75-5.1,19.55-10.2c11.9-8.5,19.55-21.25,18.7-38.25c0-9.35-3.4-18.7-6.8-27.2
	c0.85-1.7,1.7-3.4,3.4-5.1c18.7-28.05,34-57.8,34-57.8s1.7,9.35,5.95,24.65c2.55,7.65,6.8,16.15,11.05,24.65
	c-17.85,14.45-28.9,31.45-33.15,42.5c-6.8,20.4-1.7,29.75,8.5,31.45c5.1,0.85,11.9-0.85,16.15-3.4c5.95-1.7,13.6-5.95,20.4-11.05
	c11.9-8.5,23.8-21.25,22.95-37.4c0-7.65-2.55-15.3-5.1-22.1c15.3-5.95,34.85-9.35,59.5-6.8c53.55,5.95,63.75,39.95,62.05,53.55
	s-13.6,21.25-17,23.8c-4.25,2.55-5.1,3.4-5.1,5.1c0.85,2.55,2.55,2.55,5.1,1.7c4.25-0.85,28.05-11.05,28.9-36.55
	C613.7,464.85,582.25,429.15,527,430z M115.6,568.55c-17.85,19.55-42.5,26.35-52.7,20.4c-11.9-6.8-6.8-34.85,14.45-55.25
	c13.6-12.75,29.75-23.8,41.65-30.6c2.55-1.7,6.8-4.25,11.05-6.8c0.85-0.85,0.85-0.85,0.85-0.85l0,0c0.85-0.85,1.7-0.85,2.55-1.7
	C141.95,521.8,134.3,548.15,115.6,568.55z M244.8,480.15c-5.95,15.3-18.7,53.55-27.2,51c-6.8-1.7-11.05-30.6-1.7-59.5
	c5.1-14.45,15.3-31.45,21.25-38.25c9.35-11.05,20.4-14.45,22.95-10.2C263.5,430,248.2,471.65,244.8,480.15z M351.05,531.15
	c-2.55,1.7-5.1,2.55-5.95,1.7c-0.85-0.85,0.85-2.55,0.85-2.55s13.6-14.45,18.7-20.4c2.55-4.25,6.8-8.5,10.2-13.6
	c0,0.85,0,0.85,0,1.7C374.85,515,357.85,526.9,351.05,531.15z M432.65,512.45c-1.7-1.7-1.7-5.95,5.1-19.55
	c2.55-5.95,8.5-14.45,18.7-23.8c0.85,3.4,1.7,6.8,1.7,10.2C457.3,501.4,442,509.05,432.65,512.45z"/>
</svg>
