<?xml version="1.0" encoding="utf-8"?>
<!-- Generator: Adobe Illustrator 17.1.0, SVG Export Plug-In . SVG Version: 6.00 Build 0)  -->
<!DOCTYPE svg PUBLIC "-//W3C//DTD SVG 1.1//EN" "http://www.w3.org/Graphics/SVG/1.1/DTD/svg11.dtd">
<svg version="1.1" id="Layer_1" xmlns="http://www.w3.org/2000/svg" xmlns:xlink="http://www.w3.org/1999/xlink" x="0px" y="0px"
	 viewBox="0 0 72 72" enable-background="new 0 0 72 72" xml:space="preserve">
<g>
	<path fill="#020202" d="M39,71.9c-16.7,0-30.3-13.7-30.3-30.6c0-16.9,13.6-30.6,30.3-30.6s30.3,13.7,30.3,30.6
		C69.3,58.2,55.7,71.9,39,71.9z M39,12.3c-15.9,0-28.8,13-28.8,29.1c0,16,12.9,29.1,28.8,29.1c15.9,0,28.8-13,28.8-29.1
		C67.8,25.3,54.9,12.3,39,12.3z"/>
	<g>
		<g>
			<defs>
				<path id="SVGID_1_" d="M55.5,16.6L55.5,16.6l1.7-8.7c0,0-3.8-8.8-16.7-7.8C27.7,1.2,26.1,4.2,24,7.7l1.2,5.7l-2.4,1.5
					c0,0-0.9-2.6-2.2-2.7c0,0,2-2.9,0.6-4.9s-9.1-1.8-12.1,8.3c0,0-0.4-3.1-1.6-3.1c-1.2,0-5.8,1.6-4.6,6.4s5.6,6.2,7,6.8
					c0,0,0.7,0.9,0.4,2c-0.2,0.6-3.6,11.4-0.7,21.3c2.2,7.4,9.1,13.9,9.1,13.9c5.3,5.1,12.4,8.2,20.3,8.2
					c16.3,0,29.6-13.4,29.6-29.8C68.5,31.1,63.4,22,55.5,16.6z"/>
			</defs>
			<clipPath id="SVGID_2_">
				<use xlink:href="#SVGID_1_"  overflow="visible"/>
			</clipPath>
			<g clip-path="url(#SVGID_2_)">
				<path fill="#050505" d="M49.4,52.2c0,0,21.5,3.5,23.9,33.5c0,0-4,2.5-8.2,2.7C65.1,88.4,65.4,65.3,49.4,52.2L49.4,52.2z"/>
				<path fill="#DD002A" d="M62,71c0.2,0.5,0.3,1,0.5,1.4c1.4-0.1,4.6-0.6,7.4-1.9c-0.2-0.5-0.4-0.9-0.6-1.4
					C68.2,69.7,65.9,70.5,62,71L62,71z"/>
				<g>
					<g>
						<circle fill="#F4CF8C" cx="27.2" cy="29.5" r="4.6"/>
						<circle fill="#F4CF8C" cx="27.2" cy="29.5" r="4.6"/>
						<path fill="#F4CF8C" d="M22.6,29.5c0,0.1,0,0.3,0,0.4c0.3-0.1,0.7-0.3,1.1-0.6c2.2-1.4,2.2-3.1,1.8-4.1
							C23.8,25.9,22.6,27.5,22.6,29.5z"/>
						<circle fill="#F4CF8C" cx="24.9" cy="29.5" r="2.2"/>
						<g>
							<path fill="#D8AF6F" d="M24.9,27.2c-0.1,0-0.2,0-0.3,0c0.9,0.1,1.5,1.1,1.5,2.2s-0.7,2.1-1.5,2.2c0.1,0,0.2,0,0.3,0
								c1.2,0,2.2-1,2.2-2.2S26.1,27.2,24.9,27.2z"/>
							<path fill="#F4CF8C" d="M24.6,27.2c-0.1,0-0.1,0-0.2,0c-1,0-1.8,1-1.8,2.2C22.6,28.3,23.5,27.4,24.6,27.2z"/>
							<path fill="#F4CF8C" d="M22.6,29.5c0,1.2,0.8,2.2,1.8,2.2c0.1,0,0.1,0,0.2,0C23.5,31.5,22.6,30.6,22.6,29.5z"/>
						</g>
					</g>
					<g>
						<circle fill="#F4CF8C" cx="54.2" cy="29.5" r="4.6"/>
						<circle fill="#F4CF8C" cx="54.2" cy="29.5" r="4.6"/>
						<circle fill="#F4CF8C" cx="56.6" cy="29.5" r="2.2"/>
						<g>
							<path fill="#D8AF6F" d="M55.3,29.5c0-1.1,0.7-2.1,1.5-2.2c-0.1,0-0.2,0-0.3,0c-1.2,0-2.2,1-2.2,2.2c0,1.2,1,2.2,2.2,2.2
								c0.1,0,0.2,0,0.3,0C56,31.5,55.3,30.6,55.3,29.5z"/>
							<path fill="#F4CF8C" d="M58.8,29.5c0-1.2-0.8-2.2-1.8-2.2c-0.1,0-0.1,0-0.2,0C58,27.4,58.8,28.3,58.8,29.5L58.8,29.5z"/>
							<path fill="#F4CF8C" d="M56.9,31.7c0.1,0,0.1,0,0.2,0c1,0,1.8-1,1.8-2.2C58.8,30.6,58,31.5,56.9,31.7z"/>
						</g>
					</g>
				</g>
				<g>
					<path fill="#F4CF8C" d="M14.4,32.4c0,0,4.4,0.6,3.8-3.8c0,0,1.5,2.4,5,0.2c3.4-2.2,1.6-5.1,0.7-5.2c-1-0.1-2.3-1.1-5.6,2.3
						l-1.9-4.4l2.2-2.9c0,0,0.3,4.1,3.5,3c3.2-1.2,0.8-8.2-2.1-8.2s-5.2,3-5.2,3s1-2.7,5.2-4.9c0,0,1.6-1,0.7-3.3
						c-1-2.4-10-0.7-11.5,11c0,0-1.6-1.5-1.2-3.9c0.4-2.4-4.7-1.7-3.7,3.4c1,5.2,5.9,6.2,5.9,6.2s1.7,2.7,0.5,5.8
						C10.5,30.7,12.5,33.1,14.4,32.4z"/>
					<g>
						<path fill="#F4CF8C" d="M23.2,28.8c3.4-2.2,1.6-5.1,0.7-5.2c-0.6-0.1-1.3-0.5-2.6,0l1.1,2.3c0,0-0.2,3.3-3.9,2.5
							c0,0,0,0.1-0.1,0.3C18.7,29.2,20.3,30.6,23.2,28.8z"/>
						<path fill="#F4CF8C" d="M18.2,28.9c-0.6,1-2.6,3-7.3,0.5c-0.1,0.4-0.2,0.8-0.3,1.2c0,0,1.9,2.4,3.8,1.7
							C14.4,32.4,18.5,32.9,18.2,28.9z"/>
					</g>
					<path fill="#F4CF8C" d="M18.5,18.6c0,0,0.3,4.1,3.5,3c1.3-0.5,1.7-1.9,1.5-3.5c-0.8,0.8-3.3,2.9-4.2-1.5l-4.4,5.1l-3.5,2
						l4.3-1.1l2.5,3.3l-1.9-4.4C16.3,21.5,18.5,18.6,18.5,18.6z"/>
					<path fill="#F4CF8C" d="M15.5,15.1c0.7-1,2.1-2.4,4.4-3.6c0,0,1.6-1,0.7-3.3c0,0,0-0.1-0.1-0.1c-0.2,0.7-0.7,1.6-1.5,2.2
						c-1.8,1.2-8.1,5.6-6.1,12.3C12.9,22.5,12.1,18.4,15.5,15.1z"/>
					<path fill="#F4CF8C" d="M9,19c-0.3-0.4-1.5-1.8-1.2-3.8c0.2-0.9-0.5-1.4-1.4-1.3c-0.1,2.6,0.2,7.8,5.3,9.3
						C11.7,23.2,9.8,22.3,9,19z"/>
				</g>
				<path fill="#050505" d="M10.5,30.7l3.8,1.7c0,0-3.4,18.9,14.5,19.7c0,0,0.1,12.2-11,12C17.9,64.1,3.3,52.4,10.5,30.7L10.5,30.7z
					"/>
				<path fill="#DD002A" d="M15.1,42.7c-0.1-0.2-0.1-0.3-0.2-0.5l0,0c-0.8,0.4-3.1,1.4-6.4,1.4c0,0.4,0,0.8,0.1,1.2
					c1.6,0,4.4-0.2,6.7-1.5l0,0C15.3,43.1,15.2,42.9,15.1,42.7C15.1,42.8,15.1,42.7,15.1,42.7z"/>
				<path fill="#DD002A" d="M16.3,45.4c-0.1-0.2-0.2-0.3-0.3-0.5l0,0c-1,0.5-3.7,1.6-7.3,1.6C8.9,47,8.9,47.4,9,47.9
					c1.9,0,4.8-0.3,7.6-2l0,0C16.5,45.7,16.4,45.6,16.3,45.4L16.3,45.4L16.3,45.4z"/>
				<path fill="#DD002A" d="M10.5,30.7c-1,2.8-1.5,5.5-1.8,7.9c1.8,0.4,3.7,0.4,5.4-0.8c-0.2-3.1,0.2-5.4,0.2-5.4L10.5,30.7z"/>
				<path fill="#050505" d="M51.5,51.6H29.9C7,61.7,12.3,99.7,12.3,99.7h28.5V82.3l1.6,17.4h26.7C69.1,99.7,74.4,61.7,51.5,51.6z"/>
				<path fill="#930023" d="M70.8,87c-0.3-8.2-2-18.7-7.5-26.5c-6.6-7-14-8.2-14-8.2c16,13.1,15.7,36.2,15.7,36.2
					C67.2,88.3,69.3,87.6,70.8,87z"/>
				<path fill="#DD002A" d="M13.3,75.3c-0.1,0.3-0.1,0.7-0.2,1c6.3-2.3,16.4-3.8,27.7-3.8C52,72.5,62,74,68.4,76.3
					c-0.1-0.3-0.1-0.7-0.2-1c-6.4-2.3-16.3-3.8-27.4-3.8S19.6,73,13.3,75.3z"/>
				<path fill="#DD002A" d="M14.5,70.5c-0.1,0.3-0.2,0.6-0.3,0.9c6.4-2.1,15.9-3.4,26.5-3.4s20.1,1.3,26.5,3.4
					c-0.1-0.3-0.2-0.6-0.3-0.9c-6.4-2-15.7-3.3-26.2-3.3C30.3,67.1,20.9,68.4,14.5,70.5L14.5,70.5z"/>
				<path fill="#DD002A" d="M23.4,55.8c-4.9,6.3-4.4,14-4.4,14l1.3-0.6C20,62.5,23,57.2,25,54.5C24.4,54.9,23.9,55.3,23.4,55.8z"/>
				<path fill="#DD002A" d="M56.5,54.5c1.9,2.6,5,8,4.6,14.7l1.3,0.6c0,0,0.5-7.7-4.4-14C57.5,55.3,57,54.9,56.5,54.5L56.5,54.5z"/>
				<path fill="#F4CF8C" d="M52.6,50.8c0,0-4.6,4.2-12.1,4.2c-9,0-11.7-4.2-11.7-4.2l-1.6-29.2h27L52.6,50.8L52.6,50.8z"/>
				<path fill="#F4CF8C" d="M52.6,50.8c0,0-4.6,4.2-12.1,4.2c-9,0-11.7-4.2-11.7-4.2l-1.6-29.2h27L52.6,50.8L52.6,50.8z"/>
				<path fill="#F4CF8C" d="M52.6,50.8c0,0-4.6,4.2-12.1,4.2c-9,0-11.7-4.2-11.7-4.2l-1.6-29.2h27L52.6,50.8L52.6,50.8z"/>
				<path fill="#B27D30" d="M44.2,26.6l0.7-0.8c0,0,2.4-0.1,6.2,1.9c0,0-2.7-3.3-6.8-2.2l0.1-0.7l-1.2,1.9c0,0,0.4,2.5,0,4.3h-4.9
					c-0.5-1.8,0-4.3,0-4.3l-1.2-1.9l0.1,0.7c-4.1-1.1-6.8,2.2-6.8,2.2c3.7-2,6.2-1.9,6.2-1.9l0.7,0.8c-1.3,2.6-4.4,2.8-4.4,2.8
					c3.2,0.3,4.4-1.7,4.4-1.7c-0.2,1.6,0.2,3.7,0.2,3.7l3.2,2.3l0,0l0,0l3.2-2.3c0,0,0.3-2.1,0.2-3.7c0,0,1.2,2,4.4,1.7
					C48.5,29.4,45.5,29.2,44.2,26.6L44.2,26.6z"/>
				<ellipse fill="#050505" cx="40.7" cy="36.1" rx="4.4" ry="2.7"/>
				<path fill="#DD002A" d="M40.7,38.8c1,0,1.9-0.3,2.7-0.7c-0.5-0.6-1.5-0.9-2.7-0.9c-1.1,0-2.1,0.4-2.7,0.9
					C38.8,38.5,39.7,38.8,40.7,38.8z"/>
				<path fill="#FFFFFF" d="M40.7,33.4c-2.4,0-4.4,1.2-4.4,2.7c0,0.1,0,0.2,0,0.2h8.8c0-0.1,0-0.2,0-0.2
					C45.2,34.6,43.2,33.4,40.7,33.4z"/>
				<path fill="#C98C28" d="M40.7,40.4c-0.9,0-1.7-0.2-2.4-0.4c0.6,0.7,1.4,1.2,2.4,1.2s1.9-0.5,2.4-1.2
					C42.5,40.3,41.6,40.4,40.7,40.4z"/>
				<path fill="#C98C28" d="M40.7,48.3c-1.5,0-3-0.3-4.2-0.7c1,1.2,2.5,2,4.2,2c1.7,0,3.2-0.8,4.2-2C43.7,48.1,42.3,48.3,40.7,48.3z
					"/>
				<polygon fill="#CEA063" points="54,26.4 54.2,21.6 27.2,21.6 27.5,26.4 				"/>
				<path fill="#050505" d="M54.3,21.6l2.4-13.7c0,0-3.6-7-15.9-7c-14.9,0-16,7-16,7l2.4,13.7H54.3z"/>
				<polygon fill="#DD002A" points="27.2,21.6 54.3,21.6 55.3,15.7 26.1,15.7 				"/>
				<polygon fill="#050505" points="23.1,24.9 22,21.6 59.5,21.6 58.4,24.9 				"/>
				<g>
					<circle fill="#050505" cx="40.7" cy="17.6" r="4.4"/>
					<path fill="#DD002A" d="M40.7,21.5c-2.1,0-3.8-1.7-3.8-3.8c0-2.1,1.7-3.8,3.8-3.8s3.8,1.7,3.8,3.8
						C44.6,19.7,42.8,21.5,40.7,21.5z M40.7,14.3c-1.8,0-3.3,1.5-3.3,3.3c0,1.8,1.5,3.3,3.3,3.3s3.3-1.5,3.3-3.3
						C44.1,15.8,42.6,14.3,40.7,14.3z"/>
					<path fill="#DD002A" d="M40.7,20.4c-1.5,0-2.8-1.2-2.8-2.8c0-1.5,1.2-2.8,2.8-2.8s2.8,1.2,2.8,2.8
						C43.5,19.2,42.2,20.4,40.7,20.4z M40.7,15.2c-1.3,0-2.4,1.1-2.4,2.4c0,1.3,1.1,2.4,2.4,2.4s2.4-1.1,2.4-2.4
						C43.1,16.3,42,15.2,40.7,15.2z"/>
					<polygon fill="#DD002A" points="42.7,15.7 41.7,17 43.2,16.6 41.9,17.4 43.4,17.5 41.9,17.8 43.3,18.5 41.8,18.2 42.8,19.4 
						41.5,18.6 42,20 41.1,18.8 41,20.3 40.6,18.8 40.1,20.2 40.2,18.7 39.1,19.8 39.9,18.5 38.5,19.1 39.6,18.1 38.1,18.2 
						39.5,17.7 38,17.2 39.6,17.2 38.4,16.3 39.8,16.8 39,15.5 40.2,16.6 39.9,15 40.6,16.4 40.9,14.9 41,16.5 41.9,15.2 41.4,16.7 
											"/>
					<path fill="#050505" d="M41.5,17.6c0,0.5-0.4,0.8-0.8,0.8c-0.5,0-0.8-0.4-0.8-0.8c0-0.5,0.4-0.8,0.8-0.8
						C41.2,16.8,41.5,17.2,41.5,17.6z"/>
				</g>
				<path fill="#DD002A" d="M40.5,55c-9,0-11.7-4.2-11.7-4.2l0.3,5.9c0,0,2.7,4.1,11.4,4.1c7.3,0,11.8-4.1,11.8-4.1l0.3-5.9
					C52.6,50.8,48.1,55,40.5,55z"/>
				<path fill="#050505" d="M40.7,60.7c0.2-0.8,0.4-1.8,0.4-2.8s-0.1-2.1-0.4-2.8c-0.2,0.8-0.3,1.8-0.3,2.8
					C40.4,59,40.5,60,40.7,60.7L40.7,60.7z"/>
				<circle fill="#930023" cx="42.8" cy="58.1" r="0.8"/>
				<circle fill="#FFFFFF" cx="42.7" cy="57.9" r="0.8"/>
				<path fill="#FFB000" d="M43.6,66h-5.8c-0.9,0-1.7,0.7-1.7,1.7v4.1c0,0.9,0.7,1.7,1.7,1.7h5.8c0.9,0,1.7-0.7,1.7-1.7v-4.1
					C45.3,66.8,44.5,66,43.6,66z M43.2,68.4v2.8c0,0.2-0.1,0.3-0.3,0.3h-4.3c-0.2,0-0.3-0.1-0.3-0.3v-2.8c0-0.2,0.1-0.3,0.3-0.3h4.3
					C43,68,43.2,68.2,43.2,68.4z"/>
				<polygon fill="#C98C28" points="40.7,33.7 40.7,33.7 40.7,33.7 43.9,31.4 37.5,31.4 				"/>
				<g>
					<path fill="#4F1907" d="M40.7,33.2c0,0-2.7-3.2-9-1.6c-6.3,1.6-9.6,9.4-9.6,9.4s3.5,2.6,8.9,1.9C36.4,42.2,40.8,36.4,40.7,33.2
						z"/>
					<path fill="#4F1907" d="M40.7,33.2c0,0,2.7-3.2,9-1.6c6.3,1.6,9.6,9.4,9.6,9.4s-3.5,2.6-8.9,1.9C45.1,42.2,40.7,36.4,40.7,33.2
						z"/>
				</g>
				<polygon fill="#DD002A" points="54.4,60.8 53.4,62 52.4,60.8 53,60.8 53,60.2 50.9,60.2 50.9,60.8 51.7,60.8 53.1,62.5 
					53.1,63.6 52.3,63.6 52.3,64.2 54.6,64.2 54.6,63.6 53.7,63.6 53.7,62.5 55.1,60.8 56,60.8 56,60.2 53.9,60.2 53.9,60.8 				"/>
			</g>
		</g>
	</g>
</g>
</svg>
